<svg width="1158" height="579" viewBox="0 0 1158 579" fill="none" xmlns="http://www.w3.org/2000/svg">
<circle cx="579" cy="579" r="579" fill="white"/>
<path d="M345.55 317.536C343.758 317.536 342.094 317.12 340.558 316.288C339.086 315.456 337.806 314.336 336.718 312.928C335.758 311.584 334.894 309.888 334.126 307.84C333.358 305.728 332.782 303.552 332.398 301.312C331.63 297.536 331.118 292.576 330.862 286.432C330.798 284.96 330.766 282.432 330.766 278.848V272.8C330.83 271.072 330.862 269.28 330.862 267.424C330.862 263.648 331.086 260.672 331.534 258.496C331.342 257.536 331.246 256.544 331.246 255.52C331.246 251.68 332.686 248.576 335.566 246.208C338.446 243.84 342.094 242.656 346.51 242.656C348.174 242.656 349.71 243.104 351.118 244C352.526 244.896 353.23 246.016 353.23 247.36C353.23 248 352.974 248.512 352.462 248.896C351.95 249.28 351.31 249.472 350.542 249.472C349.902 249.472 349.198 249.376 348.43 249.184C347.726 248.992 347.278 248.704 347.086 248.32H345.838V248.128C343.47 248.128 341.486 248.64 339.886 249.664C338.734 250.496 337.838 251.872 337.198 253.792C336.942 254.496 336.75 255.392 336.622 256.48C336.494 257.568 336.43 258.56 336.43 259.456C336.366 259.968 336.334 260.992 336.334 262.528L336.526 265.888L336.622 269.152C336.622 270.112 336.494 271.232 336.238 272.512C335.918 274.112 335.758 275.232 335.758 275.872V278.176C335.758 280.672 335.854 284.096 336.046 288.448C336.11 292.096 336.526 295.744 337.294 299.392C337.87 302.784 338.958 305.664 340.558 308.032C342.094 310.464 344.174 311.68 346.798 311.68C347.886 311.68 349.23 311.104 350.83 309.952C352.558 308.8 353.774 308.224 354.478 308.224C355.374 308.224 356.302 308.704 357.262 309.664C357.262 312.032 356.366 313.856 354.574 315.136C352.91 316.288 350.926 317.024 348.622 317.344C347.342 317.472 346.318 317.536 345.55 317.536ZM379.526 317.536C377.222 316.768 374.374 316.384 370.982 316.384C369.958 317.024 368.87 317.344 367.718 317.344C366.95 317.344 366.278 316.992 365.702 316.288C365.19 315.648 364.934 314.944 364.934 314.176C364.934 308.8 365.158 301.632 365.606 292.672C365.99 283.136 366.182 276 366.182 271.264V270.592C365.798 266.56 365.606 263.552 365.606 261.568C365.606 255.488 366.726 252.448 368.966 252.448C369.606 252.448 370.15 252.704 370.598 253.216C371.11 253.664 371.366 254.208 371.366 254.848C371.366 255.616 371.27 256.832 371.078 258.496C370.886 260.096 370.79 261.312 370.79 262.144C370.79 266.432 370.822 270.304 370.886 273.76C370.95 277.152 370.982 280.992 370.982 285.28C370.662 286.24 370.502 287.584 370.502 289.312V290.464L370.31 298.048C370.182 300.288 370.118 302.848 370.118 305.728C370.118 310.144 371.174 312.352 373.286 312.352C373.414 312.352 373.606 312.352 373.862 312.352C374.182 312.288 374.598 312.256 375.11 312.256C375.686 312.192 376.422 312.16 377.318 312.16C380.774 312.16 382.502 313.12 382.502 315.04C382.502 315.68 382.214 316.224 381.638 316.672C381.062 317.12 380.358 317.408 379.526 317.536ZM395.229 315.904C389.661 315.904 386.877 314.944 386.877 313.024C386.877 311.488 387.869 310.72 389.853 310.72H390.909L391.869 310.816C392.381 310.816 392.733 310.656 392.925 310.336C393.117 310.016 393.213 309.44 393.213 308.608C393.213 307.52 393.149 305.824 393.021 303.52C392.829 301.984 392.605 299.232 392.349 295.264C391.773 285.472 391.485 278.08 391.485 273.088C391.485 271.296 391.517 269.664 391.581 268.192L391.677 263.296C391.677 261.184 391.581 259.424 391.389 258.016C390.365 258.272 389.629 258.4 389.181 258.4C387.645 258.4 386.877 257.632 386.877 256.096C386.877 255.328 387.357 254.656 388.317 254.08C389.277 253.504 390.493 253.088 391.965 252.832C394.525 252.32 396.797 252.064 398.781 252.064C399.549 252.064 400.189 252.352 400.701 252.928C401.277 253.44 401.565 254.048 401.565 254.752C401.565 255.456 401.341 256.064 400.893 256.576C400.509 257.088 399.997 257.344 399.357 257.344C398.973 257.344 398.653 257.312 398.397 257.248H397.629C396.989 257.248 396.509 257.408 396.189 257.728C395.933 257.984 395.805 258.496 395.805 259.264C395.805 265.472 396.189 274.816 396.957 287.296C397.085 289.6 397.341 292.992 397.725 297.472C398.045 300.416 398.205 303.424 398.205 306.496V310.144C398.589 310.08 399.229 310.048 400.125 310.048C402.813 310.048 404.157 311.168 404.157 313.408V313.984L401.757 315.616C401.693 315.616 401.469 315.648 401.085 315.712C400.765 315.712 400.125 315.712 399.165 315.712C397.117 315.84 395.805 315.904 395.229 315.904ZM424.949 317.344C423.541 317.344 422.037 317.12 420.437 316.672C418.901 316.288 417.717 315.84 416.885 315.328C412.597 312.576 410.453 305.056 410.453 292.768V290.176V287.2V284.896C410.453 282.336 410.485 280.064 410.549 278.08C410.613 276.032 410.741 273.824 410.933 271.456C411.125 268.96 411.413 266.944 411.797 265.408C412.181 263.808 412.821 262.016 413.717 260.032C414.485 258.176 415.413 256.736 416.501 255.712C417.653 254.688 419.125 253.824 420.917 253.12C422.517 252.416 424.501 252.064 426.869 252.064C427.829 252.064 428.565 252.288 429.077 252.736C429.589 253.184 429.845 253.76 429.845 254.464C429.845 255.104 429.621 255.68 429.173 256.192C428.789 256.704 428.309 256.992 427.733 257.056H423.221C421.941 257.056 420.821 257.856 419.861 259.456C418.901 261.056 418.229 263.136 417.845 265.696C417.013 270.432 416.597 274.272 416.597 277.216V277.696L416.405 286.912C416.277 289.664 416.213 292.768 416.213 296.224C416.213 298.656 416.309 300.64 416.501 302.176C416.821 304.48 417.365 306.4 418.133 307.936C418.901 309.664 420.213 310.912 422.069 311.68C423.029 312.064 424.085 312.256 425.237 312.256C425.941 312.256 426.645 312 427.349 311.488C428.181 311.488 428.853 311.68 429.365 312.064C429.941 312.384 430.229 312.896 430.229 313.6C430.229 316.096 428.469 317.344 424.949 317.344ZM461.554 317.632C460.082 317.632 458.514 316.032 456.85 312.832C454.354 308.032 451.89 300.128 449.458 289.12C448.754 286.112 448.178 283.328 447.73 280.768C445.426 285.376 444.274 290.944 444.274 297.472V315.232C444.274 316.704 443.634 317.44 442.354 317.44C441.394 317.44 440.594 317.152 439.954 316.576C439.378 316.064 439.09 315.328 439.09 314.368V285.28C439.09 282.464 439.41 277.28 440.05 269.728C440.69 263.136 441.01 257.952 441.01 254.176C441.522 252.96 442.45 252.352 443.794 252.352C444.626 252.352 445.33 252.64 445.906 253.216C446.482 253.792 446.77 254.496 446.77 255.328V255.616C445.938 257.024 445.522 262.848 445.522 273.088V276.544L449.074 269.536C451.25 264.992 453.298 261.088 455.218 257.824C457.01 254.624 458.322 253.024 459.154 253.024C460.178 253.024 461.042 253.248 461.746 253.696C462.514 254.144 462.898 254.784 462.898 255.616L460.594 259.456C455.794 267.2 453.106 271.68 452.53 272.896C452.53 273.984 452.498 274.944 452.434 275.776L452.338 278.656C452.338 281.408 453.426 286.56 455.602 294.112C457.842 301.6 459.698 306.56 461.17 308.992L462.418 310.72C463.634 312.384 464.242 313.856 464.242 315.136C464.242 315.84 463.954 316.416 463.378 316.864C462.866 317.376 462.258 317.632 461.554 317.632ZM495.368 314.464L495.272 310.72C495.208 309.632 495.176 308.416 495.176 307.072L495.272 303.808C495.08 303.104 494.6 296.096 493.832 282.784C493.064 269.472 492.616 260.928 492.488 257.152C488.776 257.024 486.408 256.64 485.384 256C484.68 255.488 484.328 254.912 484.328 254.272C484.328 253.76 484.648 253.312 485.288 252.928C485.992 252.48 486.696 252.256 487.4 252.256C489.192 252.256 491.368 252.384 493.928 252.64C496.36 252.96 498.536 253.12 500.456 253.12H501.224H501.992C503.976 253.12 504.968 253.888 504.968 255.424C504.968 256.192 504.648 256.832 504.008 257.344C503.368 257.792 502.632 258.016 501.8 258.016C501.224 258.016 500.392 257.92 499.304 257.728L497.384 257.344L497.288 257.824L497.192 258.304C497.192 264 497.736 273.088 498.824 285.568C499.848 297.28 500.36 306.368 500.36 312.832C500.36 313.6 500.008 314.272 499.304 314.848C498.664 315.424 497.928 315.712 497.096 315.712L495.368 314.464ZM525.786 317.824C524.122 317.824 522.586 317.28 521.178 316.192C519.77 315.168 518.618 313.76 517.722 311.968C515.866 308.064 514.714 303.808 514.266 299.2C513.69 294.848 513.402 290.656 513.402 286.624C513.402 285.856 513.434 285.216 513.498 284.704V282.976C513.498 282.656 513.466 282.496 513.402 282.496V280.768L513.498 274.048C513.562 272 513.818 268.736 514.266 264.256C514.586 261.184 515.322 258.208 516.474 255.328C516.922 254.048 517.498 253.088 518.202 252.448C518.906 251.744 519.706 251.392 520.602 251.392C523.162 251.392 525.466 251.872 527.514 252.832C529.562 253.728 531.29 255.008 532.698 256.672C533.978 258.272 535.066 260.256 535.962 262.624C536.858 264.928 537.498 267.392 537.882 270.016C538.266 272.704 538.458 275.552 538.458 278.56V279.328C538.458 281.312 538.49 283.104 538.554 284.704L538.65 290.176C538.65 308.608 534.362 317.824 525.786 317.824ZM525.402 313.792C526.554 313.792 527.61 313.344 528.57 312.448C529.53 311.488 530.266 310.208 530.778 308.608C531.994 305.344 532.73 301.824 532.986 298.048C533.306 294.784 533.466 291.968 533.466 289.6C533.466 286.72 533.242 282.944 532.794 278.272C532.41 273.344 532.218 269.664 532.218 267.232V265.504C532.09 263.072 531.258 260.96 529.722 259.168C528.25 257.376 526.426 256.48 524.25 256.48C522.074 256.48 520.634 257.728 519.93 260.224C519.29 262.208 518.97 264.768 518.97 267.904C518.97 269.12 519.002 270.144 519.066 270.976V273.568L518.874 277.984C518.746 279.328 518.682 280.8 518.682 282.4C518.682 285.856 518.778 289.28 518.97 292.672C519.226 297.472 519.866 302.144 520.89 306.688C521.914 311.424 523.418 313.792 525.402 313.792ZM584.343 316.96C583.127 316.96 581.943 316.096 580.791 314.368V314.08C580.599 310.688 580.023 306.912 579.063 302.752C578.103 298.592 576.695 293.568 574.839 287.68C573.431 283.264 572.247 279.296 571.287 275.776V313.6C571.287 314.624 571.095 315.392 570.711 315.904C570.391 316.352 569.719 316.576 568.695 316.576C567.927 316.576 567.319 316.352 566.871 315.904C566.423 315.392 566.199 314.752 566.199 313.984V313.216L566.391 284.992C566.519 276.672 566.583 267.296 566.583 256.864V245.056C566.583 244.288 566.743 243.776 567.063 243.52C567.383 243.2 568.055 243.04 569.079 243.04C570.679 243.04 572.151 243.36 573.495 244C574.839 244.576 575.991 245.408 576.951 246.496C578.935 248.736 580.215 251.424 580.791 254.56C581.047 255.84 581.175 257.312 581.175 258.976C581.175 259.936 581.079 260.992 580.887 262.144C580.759 263.296 580.663 264.032 580.599 264.352C580.471 264.992 580.183 265.952 579.735 267.232C579.287 268.512 578.999 269.344 578.871 269.728L577.719 272.416L576.759 274.912C576.823 277.216 577.207 280.128 577.911 283.648C578.679 287.168 579.511 290.432 580.407 293.44C581.047 295.552 582.199 299.072 583.863 304L586.647 312.448V312.64C586.647 313.728 586.551 314.656 586.359 315.424C586.167 316.448 585.495 316.96 584.343 316.96ZM571.095 271.456C571.991 270.56 573.079 269.312 574.359 267.712L575.799 259.456C575.863 259.136 575.895 258.688 575.895 258.112C575.895 256.256 575.543 254.112 574.839 251.68C574.455 250.528 573.943 249.568 573.303 248.8C572.727 247.968 572.119 247.52 571.479 247.456L571.287 257.056C571.095 261.344 570.999 264.672 570.999 267.04C570.999 269.28 571.031 270.752 571.095 271.456ZM598.845 317.248C598.013 317.248 597.245 316.96 596.541 316.384C595.901 315.808 595.549 315.104 595.485 314.272V311.776V309.856C595.421 309.28 595.389 308.608 595.389 307.84C595.389 306.496 595.293 304.448 595.101 301.696L594.909 295.552C594.909 292.416 595.005 287.744 595.197 281.536C595.453 275.968 595.581 271.296 595.581 267.52C595.581 266.624 595.485 265.28 595.293 263.488C595.101 261.632 595.005 260.288 595.005 259.456C595.005 254.912 596.349 252.64 599.037 252.64C601.149 252.64 603.581 253.056 606.333 253.888C609.149 254.72 610.557 255.712 610.557 256.864C610.557 257.504 610.269 258.112 609.693 258.688C609.181 259.2 608.541 259.616 607.773 259.936C605.085 258.976 602.653 258.336 600.477 258.016C600.541 258.976 600.573 260.352 600.573 262.144C600.573 264.704 600.541 267.008 600.477 269.056C600.285 272.128 600.189 274.432 600.189 275.968L600.477 277.504L602.013 277.408C602.525 277.344 603.165 277.312 603.933 277.312C607.005 277.312 608.541 278.208 608.541 280C608.541 280.704 608.253 281.312 607.677 281.824C607.101 282.272 606.365 282.496 605.469 282.496C604.317 282.496 603.421 282.432 602.781 282.304H600.381C600.509 283.968 600.573 286.4 600.573 289.6C600.573 292.8 600.541 295.68 600.477 298.24C600.285 302.144 600.189 305.056 600.189 306.976C600.189 310.56 600.253 312.352 600.381 312.352L603.549 312.256C604.637 312.192 605.949 312.16 607.485 312.16C609.917 312.16 611.133 312.928 611.133 314.464C611.133 315.36 610.717 316.032 609.885 316.48C609.117 316.992 608.157 317.248 607.005 317.248H598.845ZM629.102 315.712C629.102 308.352 628.398 300.736 626.99 292.864C625.646 284.992 623.502 275.36 620.558 263.968C620.43 263.328 620.142 262.336 619.694 260.992C618.542 257.408 617.966 255.136 617.966 254.176C617.966 253.6 618.19 253.088 618.638 252.64C619.15 252.192 619.694 251.968 620.27 251.968C621.23 251.968 622.126 252.768 622.958 254.368C623.79 255.904 624.558 257.984 625.262 260.608C625.966 263.168 626.734 266.368 627.566 270.208C628.334 273.856 629.262 279.456 630.35 287.008L630.926 290.752L632.078 299.296C632.334 301.664 632.558 303.36 632.75 304.384C634.094 297.344 635.822 287.168 637.934 273.856C639.662 262.464 640.878 254.688 641.582 250.528H643.694C644.27 250.528 644.782 250.752 645.23 251.2C645.678 251.584 645.902 252.064 645.902 252.64C645.902 254.944 645.614 257.44 645.038 260.128C644.526 262.752 643.726 265.92 642.638 269.632C641.742 272.832 641.134 275.232 640.814 276.832C640.558 278.432 640.302 280.96 640.046 284.416C639.534 292.16 638.734 299.104 637.646 305.248C636.942 308.96 636.014 311.872 634.862 313.984C633.71 316.096 632.398 317.152 630.926 317.152L629.102 315.712ZM659.876 317.248C659.044 317.248 658.276 316.96 657.572 316.384C656.932 315.808 656.58 315.104 656.516 314.272V311.776V309.856C656.452 309.28 656.42 308.608 656.42 307.84C656.42 306.496 656.324 304.448 656.132 301.696L655.94 295.552C655.94 292.416 656.036 287.744 656.228 281.536C656.484 275.968 656.612 271.296 656.612 267.52C656.612 266.624 656.516 265.28 656.324 263.488C656.132 261.632 656.036 260.288 656.036 259.456C656.036 254.912 657.38 252.64 660.068 252.64C662.18 252.64 664.612 253.056 667.364 253.888C670.18 254.72 671.588 255.712 671.588 256.864C671.588 257.504 671.3 258.112 670.724 258.688C670.212 259.2 669.572 259.616 668.804 259.936C666.116 258.976 663.684 258.336 661.508 258.016C661.572 258.976 661.604 260.352 661.604 262.144C661.604 264.704 661.572 267.008 661.508 269.056C661.316 272.128 661.22 274.432 661.22 275.968L661.508 277.504L663.044 277.408C663.556 277.344 664.196 277.312 664.964 277.312C668.036 277.312 669.572 278.208 669.572 280C669.572 280.704 669.284 281.312 668.708 281.824C668.132 282.272 667.396 282.496 666.5 282.496C665.348 282.496 664.452 282.432 663.812 282.304H661.412C661.54 283.968 661.604 286.4 661.604 289.6C661.604 292.8 661.572 295.68 661.508 298.24C661.316 302.144 661.22 305.056 661.22 306.976C661.22 310.56 661.284 312.352 661.412 312.352L664.58 312.256C665.668 312.192 666.98 312.16 668.516 312.16C670.948 312.16 672.164 312.928 672.164 314.464C672.164 315.36 671.748 316.032 670.916 316.48C670.148 316.992 669.188 317.248 668.036 317.248H659.876ZM701.654 316.864C700.182 316.864 699.094 316.64 698.39 316.192C697.686 315.744 697.334 314.912 697.334 313.696C697.334 311.776 697.014 308.512 696.374 303.904L695.99 301.888L686.486 300.448C686.102 301.92 685.558 304.896 684.854 309.376C684.47 312.512 683.862 314.592 683.03 315.616C682.582 316.192 681.942 316.48 681.11 316.48C680.342 316.48 679.638 316.256 678.998 315.808C678.358 315.296 678.038 314.688 678.038 313.984L678.23 313.504L678.326 313.12C682.55 296.672 685.75 280.448 687.926 264.448C687.926 264.192 687.958 263.776 688.022 263.2C688.086 262.56 688.15 261.664 688.214 260.512C688.406 258.144 688.598 256.256 688.79 254.848C689.046 253.44 689.43 252.384 689.942 251.68H693.206C694.102 251.68 694.87 251.904 695.51 252.352C696.15 252.736 696.47 253.312 696.47 254.08C696.47 258.944 697.142 266.176 698.486 275.776C699.766 285.632 700.406 292.544 700.406 296.512C700.406 296.896 700.566 297.888 700.886 299.488C701.206 300.96 701.366 301.92 701.366 302.368C701.366 302.816 701.686 304.736 702.326 308.128C702.902 311.2 703.19 313.184 703.19 314.08V314.176C703.19 315.584 702.678 316.48 701.654 316.864ZM695.318 298.432C695.126 297.472 695.03 296.288 695.03 294.88C695.03 289.12 694.518 281.76 693.494 272.8L692.534 262.816C689.782 277.856 687.894 289.216 686.87 296.896C687.83 297.536 690.646 298.048 695.318 298.432ZM726.213 317.536C723.909 316.768 721.061 316.384 717.669 316.384C716.645 317.024 715.557 317.344 714.405 317.344C713.637 317.344 712.965 316.992 712.389 316.288C711.877 315.648 711.621 314.944 711.621 314.176C711.621 308.8 711.845 301.632 712.293 292.672C712.677 283.136 712.869 276 712.869 271.264V270.592C712.485 266.56 712.293 263.552 712.293 261.568C712.293 255.488 713.413 252.448 715.653 252.448C716.293 252.448 716.837 252.704 717.285 253.216C717.797 253.664 718.053 254.208 718.053 254.848C718.053 255.616 717.957 256.832 717.765 258.496C717.573 260.096 717.477 261.312 717.477 262.144C717.477 266.432 717.509 270.304 717.573 273.76C717.637 277.152 717.669 280.992 717.669 285.28C717.349 286.24 717.189 287.584 717.189 289.312V290.464L716.997 298.048C716.869 300.288 716.805 302.848 716.805 305.728C716.805 310.144 717.861 312.352 719.973 312.352C720.101 312.352 720.293 312.352 720.549 312.352C720.869 312.288 721.285 312.256 721.797 312.256C722.373 312.192 723.109 312.16 724.005 312.16C727.461 312.16 729.189 313.12 729.189 315.04C729.189 315.68 728.901 316.224 728.325 316.672C727.749 317.12 727.045 317.408 726.213 317.536ZM760.024 314.464L759.928 310.72C759.864 309.632 759.832 308.416 759.832 307.072L759.928 303.808C759.736 303.104 759.256 296.096 758.488 282.784C757.72 269.472 757.272 260.928 757.144 257.152C753.432 257.024 751.064 256.64 750.04 256C749.336 255.488 748.984 254.912 748.984 254.272C748.984 253.76 749.304 253.312 749.944 252.928C750.648 252.48 751.352 252.256 752.056 252.256C753.848 252.256 756.024 252.384 758.584 252.64C761.016 252.96 763.192 253.12 765.112 253.12H765.88H766.648C768.632 253.12 769.624 253.888 769.624 255.424C769.624 256.192 769.304 256.832 768.664 257.344C768.024 257.792 767.288 258.016 766.456 258.016C765.88 258.016 765.048 257.92 763.96 257.728L762.04 257.344L761.944 257.824L761.848 258.304C761.848 264 762.392 273.088 763.48 285.568C764.504 297.28 765.016 306.368 765.016 312.832C765.016 313.6 764.664 314.272 763.96 314.848C763.32 315.424 762.584 315.712 761.752 315.712L760.024 314.464ZM796.106 316C793.93 316 792.842 310.72 792.842 300.16L792.938 294.688L793.034 290.272V289.984V289.024C793.098 288.512 793.13 287.904 793.13 287.2C793.13 287.072 793.034 286.912 792.842 286.72C792.65 286.528 792.554 286.368 792.554 286.24V286.144C792.234 286.272 791.658 286.336 790.826 286.336C789.994 286.336 788.97 286.208 787.754 285.952C787.37 285.888 786.346 285.728 784.682 285.472V296.512C784.682 298.176 784.778 300.8 784.97 304.384C785.162 307.904 785.258 310.528 785.258 312.256C785.258 313.216 785.002 314.048 784.49 314.752C783.978 315.456 783.306 315.808 782.474 315.808C781.258 315.808 780.394 314.624 779.882 312.256C779.37 309.824 779.114 306.656 779.114 302.752L779.306 294.976C779.37 292.8 779.402 290.496 779.402 288.064V286.432V285.088C779.402 284.064 779.37 283.392 779.306 283.072V282.592L779.594 277.024C779.594 274.592 779.498 270.976 779.306 266.176C779.114 261.376 779.018 257.76 779.018 255.328C779.018 254.56 779.274 253.888 779.786 253.312C780.298 252.736 780.938 252.448 781.706 252.448C783.754 252.448 784.778 254.368 784.778 258.208L784.586 270.112C784.458 273.696 784.394 277.696 784.394 282.112C785.354 282.432 787.082 282.592 789.578 282.592H793.13C793.258 282.208 793.322 281.824 793.322 281.44C793.322 278.368 793.13 273.824 792.746 267.808C792.298 262.176 792.074 257.6 792.074 254.08C792.074 253.376 792.33 252.8 792.842 252.352C793.418 251.84 794.09 251.584 794.858 251.584C795.306 251.584 795.946 251.744 796.778 252.064L797.642 252.448C797.642 261.536 797.962 273.664 798.602 288.832L799.466 313.12C799.466 314.016 799.114 314.72 798.41 315.232C797.77 315.744 797.002 316 796.106 316ZM815.408 317.248C814.576 317.248 813.808 316.96 813.104 316.384C812.464 315.808 812.112 315.104 812.048 314.272V311.776V309.856C811.984 309.28 811.952 308.608 811.952 307.84C811.952 306.496 811.856 304.448 811.664 301.696L811.472 295.552C811.472 292.416 811.568 287.744 811.76 281.536C812.016 275.968 812.144 271.296 812.144 267.52C812.144 266.624 812.048 265.28 811.856 263.488C811.664 261.632 811.568 260.288 811.568 259.456C811.568 254.912 812.912 252.64 815.6 252.64C817.712 252.64 820.144 253.056 822.896 253.888C825.712 254.72 827.12 255.712 827.12 256.864C827.12 257.504 826.832 258.112 826.256 258.688C825.744 259.2 825.104 259.616 824.336 259.936C821.648 258.976 819.216 258.336 817.04 258.016C817.104 258.976 817.136 260.352 817.136 262.144C817.136 264.704 817.104 267.008 817.04 269.056C816.848 272.128 816.752 274.432 816.752 275.968L817.04 277.504L818.576 277.408C819.088 277.344 819.728 277.312 820.496 277.312C823.568 277.312 825.104 278.208 825.104 280C825.104 280.704 824.816 281.312 824.24 281.824C823.664 282.272 822.928 282.496 822.032 282.496C820.88 282.496 819.984 282.432 819.344 282.304H816.944C817.072 283.968 817.136 286.4 817.136 289.6C817.136 292.8 817.104 295.68 817.04 298.24C816.848 302.144 816.752 305.056 816.752 306.976C816.752 310.56 816.816 312.352 816.944 312.352L820.112 312.256C821.2 312.192 822.512 312.16 824.048 312.16C826.48 312.16 827.696 312.928 827.696 314.464C827.696 315.36 827.28 316.032 826.448 316.48C825.68 316.992 824.72 317.248 823.568 317.248H815.408ZM435.291 432.672C434.459 429.28 434.043 424.576 434.043 418.56L434.235 410.016C434.363 407.456 434.427 404.608 434.427 401.472C434.043 400.576 433.851 399.776 433.851 399.072V398.784C434.491 397.568 434.811 394.816 434.811 390.528L434.907 386.112C434.971 384.704 435.003 383.136 435.003 381.408C435.003 377.632 434.747 374.656 434.235 372.48C434.427 371.584 434.747 370.816 435.195 370.176C435.643 369.472 436.187 369.12 436.827 369.12H441.051C442.843 369.12 444.411 369.536 445.755 370.368C447.099 371.136 448.123 372.256 448.827 373.728C450.107 376.352 450.747 379.456 450.747 383.04C450.747 385.6 450.715 387.616 450.651 389.088C450.523 390.944 450.203 392.64 449.691 394.176C449.499 395.008 449.211 395.712 448.827 396.288C448.507 396.8 448.027 397.44 447.387 398.208C446.491 399.296 445.019 400.32 442.971 401.28C442.139 401.728 441.051 402.144 439.707 402.528V412.8L439.899 418.944L440.091 421.92C440.347 425.504 440.475 428.544 440.475 431.04C440.475 431.808 440.155 432.448 439.515 432.96C438.875 433.536 438.139 433.824 437.307 433.824L435.291 432.672ZM439.803 398.592C443.579 398.016 445.467 392.608 445.467 382.368C445.467 380.512 445.371 379.072 445.179 378.048C444.987 377.28 444.731 376.672 444.411 376.224C444.091 375.712 443.611 375.296 442.971 374.976C442.267 374.592 441.499 374.4 440.667 374.4C440.667 374.336 440.315 374.304 439.611 374.304V379.776C439.611 383.552 439.643 386.912 439.707 389.856C439.707 393.184 439.739 395.36 439.803 396.384V398.4V398.592ZM470.451 433.44C468.915 433.44 467.539 433.088 466.323 432.384C465.107 431.744 464.115 430.784 463.347 429.504C461.811 426.816 460.819 423.776 460.371 420.384C459.923 417.44 459.699 413.92 459.699 409.824C459.507 402.912 459.411 394.464 459.411 384.48L459.315 377.088C459.251 376.704 459.219 376.064 459.219 375.168C459.091 372.736 459.027 371.264 459.027 370.752C459.603 369.408 460.275 368.736 461.043 368.736C461.811 368.736 462.483 369.312 463.059 370.464C463.699 371.616 464.019 372.864 464.019 374.208V400.32C464.019 402.88 464.243 406.272 464.691 410.496C465.139 415.744 465.363 419.136 465.363 420.672C465.363 425.408 467.379 427.776 471.411 427.776C476.019 427.776 478.323 410.56 478.323 376.128V370.752V369.888C478.259 369.696 478.227 369.44 478.227 369.12C478.227 368.352 478.387 367.808 478.707 367.488C479.091 367.104 479.795 366.912 480.819 366.912C481.651 366.912 482.291 367.168 482.739 367.68C483.251 368.128 483.571 368.672 483.699 369.312C483.763 369.696 483.795 370.432 483.795 371.52C483.795 372.544 483.699 374.176 483.507 376.416C483.251 378.272 483.123 379.872 483.123 381.216C483.123 382.688 483.059 384 482.931 385.152L482.739 389.184V389.952C482.803 390.208 482.835 390.496 482.835 390.816C482.835 419.232 478.707 433.44 470.451 433.44ZM521.075 432.288C520.307 432.288 519.731 432.096 519.347 431.712C518.963 431.264 518.675 430.528 518.483 429.504L517.907 427.68V427.488V427.2C517.907 425.088 515.699 417.888 511.283 405.6C506.931 393.312 503.507 384.224 501.011 378.336V426.624L501.395 427.296C501.459 427.424 501.587 427.648 501.779 427.968C501.971 428.288 502.067 428.608 502.067 428.928C502.067 429.76 501.779 430.464 501.203 431.04C500.627 431.616 499.923 431.904 499.091 431.904C497.043 431.904 496.019 429.952 496.019 426.048L495.923 409.632C495.859 404.704 495.827 399.2 495.827 393.12C495.827 391.072 495.923 388.096 496.115 384.192C496.307 380.16 496.403 377.184 496.403 375.264C496.403 372.256 497.555 369.888 499.859 368.16V368.736C500.243 368.608 500.499 368.544 500.627 368.544C502.099 368.544 503.955 371.104 506.195 376.224C507.987 380.32 509.587 384.64 510.995 389.184C512.467 393.728 514.387 400.192 516.755 408.576L517.715 412.032C519.187 417.216 520.307 420.928 521.075 423.168C522.355 409.408 522.995 393.152 522.995 374.4V373.152C522.931 372.768 522.899 372.352 522.899 371.904C522.899 369.984 523.667 369.024 525.203 369.024C526.099 369.024 526.771 369.376 527.219 370.08C527.731 370.784 527.987 371.68 527.987 372.768V379.968C527.859 389.824 527.475 400.512 526.835 412.032C526.195 423.552 525.427 430.048 524.531 431.52C522.675 432.032 521.523 432.288 521.075 432.288ZM553.668 433.344C552.26 433.344 550.756 433.12 549.156 432.672C547.62 432.288 546.436 431.84 545.604 431.328C541.316 428.576 539.172 421.056 539.172 408.768V406.176V403.2V400.896C539.172 398.336 539.204 396.064 539.268 394.08C539.332 392.032 539.46 389.824 539.652 387.456C539.844 384.96 540.132 382.944 540.516 381.408C540.9 379.808 541.54 378.016 542.436 376.032C543.204 374.176 544.132 372.736 545.22 371.712C546.372 370.688 547.844 369.824 549.636 369.12C551.236 368.416 553.22 368.064 555.588 368.064C556.548 368.064 557.284 368.288 557.796 368.736C558.308 369.184 558.564 369.76 558.564 370.464C558.564 371.104 558.34 371.68 557.892 372.192C557.508 372.704 557.028 372.992 556.452 373.056H551.94C550.66 373.056 549.54 373.856 548.58 375.456C547.62 377.056 546.948 379.136 546.564 381.696C545.732 386.432 545.316 390.272 545.316 393.216V393.696L545.124 402.912C544.996 405.664 544.932 408.768 544.932 412.224C544.932 414.656 545.028 416.64 545.22 418.176C545.54 420.48 546.084 422.4 546.852 423.936C547.62 425.664 548.932 426.912 550.788 427.68C551.748 428.064 552.804 428.256 553.956 428.256C554.66 428.256 555.364 428 556.068 427.488C556.9 427.488 557.572 427.68 558.084 428.064C558.66 428.384 558.948 428.896 558.948 429.6C558.948 432.096 557.188 433.344 553.668 433.344ZM584.513 432C582.337 432 581.249 426.72 581.249 416.16L581.345 410.688L581.441 406.272V405.984V405.024C581.505 404.512 581.537 403.904 581.537 403.2C581.537 403.072 581.441 402.912 581.249 402.72C581.057 402.528 580.961 402.368 580.961 402.24V402.144C580.641 402.272 580.065 402.336 579.233 402.336C578.401 402.336 577.377 402.208 576.161 401.952C575.777 401.888 574.753 401.728 573.089 401.472V412.512C573.089 414.176 573.185 416.8 573.377 420.384C573.569 423.904 573.665 426.528 573.665 428.256C573.665 429.216 573.409 430.048 572.897 430.752C572.385 431.456 571.713 431.808 570.881 431.808C569.665 431.808 568.801 430.624 568.289 428.256C567.777 425.824 567.521 422.656 567.521 418.752L567.713 410.976C567.777 408.8 567.809 406.496 567.809 404.064V402.432V401.088C567.809 400.064 567.777 399.392 567.713 399.072V398.592L568.001 393.024C568.001 390.592 567.905 386.976 567.713 382.176C567.521 377.376 567.425 373.76 567.425 371.328C567.425 370.56 567.681 369.888 568.193 369.312C568.705 368.736 569.345 368.448 570.113 368.448C572.161 368.448 573.185 370.368 573.185 374.208L572.993 386.112C572.865 389.696 572.801 393.696 572.801 398.112C573.761 398.432 575.489 398.592 577.985 398.592H581.537C581.665 398.208 581.729 397.824 581.729 397.44C581.729 394.368 581.537 389.824 581.153 383.808C580.705 378.176 580.481 373.6 580.481 370.08C580.481 369.376 580.737 368.8 581.249 368.352C581.825 367.84 582.497 367.584 583.265 367.584C583.713 367.584 584.353 367.744 585.185 368.064L586.049 368.448C586.049 377.536 586.369 389.664 587.009 404.832L587.873 429.12C587.873 430.016 587.521 430.72 586.817 431.232C586.177 431.744 585.409 432 584.513 432ZM631.713 433.536C629.409 432.768 626.561 432.384 623.169 432.384C622.145 433.024 621.057 433.344 619.905 433.344C619.137 433.344 618.465 432.992 617.889 432.288C617.377 431.648 617.121 430.944 617.121 430.176C617.121 424.8 617.345 417.632 617.793 408.672C618.177 399.136 618.369 392 618.369 387.264V386.592C617.985 382.56 617.793 379.552 617.793 377.568C617.793 371.488 618.913 368.448 621.153 368.448C621.793 368.448 622.337 368.704 622.785 369.216C623.297 369.664 623.553 370.208 623.553 370.848C623.553 371.616 623.457 372.832 623.265 374.496C623.073 376.096 622.977 377.312 622.977 378.144C622.977 382.432 623.009 386.304 623.073 389.76C623.137 393.152 623.169 396.992 623.169 401.28C622.849 402.24 622.689 403.584 622.689 405.312V406.464L622.497 414.048C622.369 416.288 622.305 418.848 622.305 421.728C622.305 426.144 623.361 428.352 625.473 428.352C625.601 428.352 625.793 428.352 626.049 428.352C626.369 428.288 626.785 428.256 627.297 428.256C627.873 428.192 628.609 428.16 629.505 428.16C632.961 428.16 634.689 429.12 634.689 431.04C634.689 431.68 634.401 432.224 633.825 432.672C633.249 433.12 632.545 433.408 631.713 433.536ZM647.417 431.904C641.849 431.904 639.065 430.944 639.065 429.024C639.065 427.488 640.057 426.72 642.041 426.72H643.097L644.057 426.816C644.569 426.816 644.921 426.656 645.113 426.336C645.305 426.016 645.401 425.44 645.401 424.608C645.401 423.52 645.337 421.824 645.209 419.52C645.017 417.984 644.793 415.232 644.537 411.264C643.961 401.472 643.673 394.08 643.673 389.088C643.673 387.296 643.705 385.664 643.769 384.192L643.865 379.296C643.865 377.184 643.769 375.424 643.577 374.016C642.553 374.272 641.817 374.4 641.369 374.4C639.833 374.4 639.065 373.632 639.065 372.096C639.065 371.328 639.545 370.656 640.505 370.08C641.465 369.504 642.681 369.088 644.153 368.832C646.713 368.32 648.985 368.064 650.969 368.064C651.737 368.064 652.377 368.352 652.889 368.928C653.465 369.44 653.753 370.048 653.753 370.752C653.753 371.456 653.529 372.064 653.081 372.576C652.697 373.088 652.185 373.344 651.545 373.344C651.161 373.344 650.841 373.312 650.585 373.248H649.817C649.177 373.248 648.697 373.408 648.377 373.728C648.121 373.984 647.993 374.496 647.993 375.264C647.993 381.472 648.377 390.816 649.145 403.296C649.273 405.6 649.529 408.992 649.913 413.472C650.233 416.416 650.393 419.424 650.393 422.496V426.144C650.777 426.08 651.417 426.048 652.313 426.048C655.001 426.048 656.345 427.168 656.345 429.408V429.984L653.945 431.616C653.881 431.616 653.657 431.648 653.273 431.712C652.953 431.712 652.313 431.712 651.353 431.712C649.305 431.84 647.993 431.904 647.417 431.904ZM690.481 432.288C689.713 432.288 689.137 432.096 688.753 431.712C688.369 431.264 688.081 430.528 687.889 429.504L687.313 427.68V427.488V427.2C687.313 425.088 685.105 417.888 680.689 405.6C676.337 393.312 672.913 384.224 670.417 378.336V426.624L670.801 427.296C670.865 427.424 670.993 427.648 671.185 427.968C671.377 428.288 671.473 428.608 671.473 428.928C671.473 429.76 671.185 430.464 670.609 431.04C670.033 431.616 669.329 431.904 668.497 431.904C666.449 431.904 665.425 429.952 665.425 426.048L665.329 409.632C665.265 404.704 665.233 399.2 665.233 393.12C665.233 391.072 665.329 388.096 665.521 384.192C665.713 380.16 665.809 377.184 665.809 375.264C665.809 372.256 666.961 369.888 669.265 368.16V368.736C669.649 368.608 669.905 368.544 670.033 368.544C671.505 368.544 673.361 371.104 675.601 376.224C677.393 380.32 678.993 384.64 680.401 389.184C681.873 393.728 683.793 400.192 686.161 408.576L687.121 412.032C688.593 417.216 689.713 420.928 690.481 423.168C691.761 409.408 692.401 393.152 692.401 374.4V373.152C692.337 372.768 692.305 372.352 692.305 371.904C692.305 369.984 693.073 369.024 694.609 369.024C695.505 369.024 696.177 369.376 696.625 370.08C697.137 370.784 697.393 371.68 697.393 372.768V379.968C697.265 389.824 696.881 400.512 696.241 412.032C695.601 423.552 694.833 430.048 693.937 431.52C692.081 432.032 690.929 432.288 690.481 432.288ZM714.626 433.248C713.794 433.248 713.026 432.96 712.322 432.384C711.682 431.808 711.33 431.104 711.266 430.272V427.776V425.856C711.202 425.28 711.17 424.608 711.17 423.84C711.17 422.496 711.074 420.448 710.882 417.696L710.69 411.552C710.69 408.416 710.786 403.744 710.978 397.536C711.234 391.968 711.362 387.296 711.362 383.52C711.362 382.624 711.266 381.28 711.074 379.488C710.882 377.632 710.786 376.288 710.786 375.456C710.786 370.912 712.13 368.64 714.818 368.64C716.93 368.64 719.362 369.056 722.114 369.888C724.93 370.72 726.338 371.712 726.338 372.864C726.338 373.504 726.05 374.112 725.474 374.688C724.962 375.2 724.322 375.616 723.554 375.936C720.866 374.976 718.434 374.336 716.258 374.016C716.322 374.976 716.354 376.352 716.354 378.144C716.354 380.704 716.322 383.008 716.258 385.056C716.066 388.128 715.97 390.432 715.97 391.968L716.258 393.504L717.794 393.408C718.306 393.344 718.946 393.312 719.714 393.312C722.786 393.312 724.322 394.208 724.322 396C724.322 396.704 724.034 397.312 723.458 397.824C722.882 398.272 722.146 398.496 721.25 398.496C720.098 398.496 719.202 398.432 718.562 398.304H716.162C716.29 399.968 716.354 402.4 716.354 405.6C716.354 408.8 716.322 411.68 716.258 414.24C716.066 418.144 715.97 421.056 715.97 422.976C715.97 426.56 716.034 428.352 716.162 428.352L719.33 428.256C720.418 428.192 721.73 428.16 723.266 428.16C725.698 428.16 726.914 428.928 726.914 430.464C726.914 431.36 726.498 432.032 725.666 432.48C724.898 432.992 723.938 433.248 722.786 433.248H714.626Z" fill="#1E1E1E"/>
</svg>
